<svg xmlns="http://www.w3.org/2000/svg" xmlns:xlink="http://www.w3.org/1999/xlink" width="44.469" height="36.687" viewBox="0 0 44.469 36.687">
  <metadata><?xpacket begin="﻿" id="W5M0MpCehiHzreSzNTczkc9d"?>
<x:xmpmeta xmlns:x="adobe:ns:meta/" x:xmptk="Adobe XMP Core 5.6-c138 79.159824, 2016/09/14-01:09:01        ">
   <rdf:RDF xmlns:rdf="http://www.w3.org/1999/02/22-rdf-syntax-ns#">
      <rdf:Description rdf:about=""/>
   </rdf:RDF>
</x:xmpmeta>
                                                                                                    
                                                                                                    
                                                                                                    
                                                                                                    
                                                                                                    
                                                                                                    
                                                                                                    
                                                                                                    
                                                                                                    
                                                                                                    
                                                                                                    
                                                                                                    
                                                                                                    
                                                                                                    
                                                                                                    
                                                                                                    
                                                                                                    
                                                                                                    
                                                                                                    
                                                                                                    
                           
<?xpacket end="w"?></metadata>
<defs>
    <style>
      .cls-1 {
        fill: #8c8c8c;
        stroke: #e6e6e6;
        stroke-linejoin: round;
        stroke-width: 3px;
        fill-rule: evenodd;
        opacity: 0.62;
        filter: url(#filter);
      }
    </style>
    <filter id="filter" x="191.906" y="606.563" width="41.469" height="33.687" filterUnits="userSpaceOnUse">
      <feFlood result="flood" flood-color="#e6e6e6"/>
      <feComposite result="composite" operator="in" in2="SourceGraphic"/>
      <feBlend result="blend" in2="SourceGraphic"/>
    </filter>
  </defs>
  <g transform="translate(-190.406 -605.063)" style="fill: #8c8c8c; filter: url(#filter)">
    <path id="Twitter" class="cls-1" d="M233.373,610.64v0.2a2.386,2.386,0,0,0-.616.815l-0.205.135v0.136l-0.547.475v0.136l-0.684.61q-0.307.34-.616,0.679h-0.137l-0.273.339h-0.137l-0.2.272h-0.137c-0.069.09-.137,0.181-0.205,0.271h-0.137l-0.137.2h-0.068v2.239a3.749,3.749,0,0,0-.069,1.018q-0.238,1.493-.479,2.986c-0.107.337-.229,0.759-0.342,1.086q-0.033.271-.068,0.543h-0.068v0.2h-0.069v0.2h-0.068v0.2h-0.069v0.2h-0.068v0.2H227.9v0.2h-0.069v0.2h-0.068v0.2H227.7v0.136h-0.068c-0.023.136-.046,0.272-0.068,0.407H227.49v0.136h-0.068v0.2h-0.069c-0.023.09-.045,0.181-0.068,0.271h-0.068v0.2h-0.069v0.135H227.08l-0.069.34h-0.068c-0.046.135-.091,0.271-0.137,0.407h-0.068v0.135h-0.069v0.136H226.6v0.136h-0.068V627.2h-0.069v0.135H226.4v0.136h-0.069v0.136h-0.068v0.136H226.19v0.135l-0.136.068v0.136h-0.069v0.136l-0.137.067c-0.045.136-.091,0.272-0.136,0.408h-0.069c-0.023.067-.045,0.135-0.068,0.2l-0.137.068c-0.023.091-.046,0.181-0.068,0.272H225.3v0.135l-0.137.068v0.136l-0.136.068v0.135l-0.137.068v0.136l-0.2.136v0.135h-0.069c-0.023.068-.045,0.136-0.068,0.2l-0.137.068v0.136l-0.274.2V631l-0.205.136v0.135l-0.274.2v0.136l-0.342.271v0.136l-0.342.271v0.136l-0.752.679-1.231,1.289h-0.137l-0.342.407h-0.137l-0.273.339h-0.137l-0.137.2h-0.137c-0.068.091-.137,0.181-0.205,0.271H219.35c-0.023.046-.046,0.091-0.068,0.136h-0.137l-0.137.2h-0.137l-0.068.135h-0.137l-0.137.2h-0.137l-0.068.136-0.274.068c-0.022.045-.045,0.09-0.068,0.135h-0.137c-0.023.046-.045,0.091-0.068,0.136H217.64l-0.069.136-0.41.136c-0.023.045-.046,0.09-0.068,0.135h-0.137v0.068h-0.137v0.068h-0.137v0.068h-0.137v0.068h-0.136l-0.069.135H216.2v0.068l-0.273.068v0.068h-0.205v0.068h-0.137l-0.069.136h-0.136v0.067h-0.206v0.068H215.04v0.068h-0.2v0.068H214.7v0.068l-0.274.068v0.068H214.22v0.068h-0.137V638.6l-0.616.136V638.8H213.33v0.068l-0.889.2v0.068h-0.205v0.068h-0.2v0.068h-0.205v0.068l-0.89.136v0.067h-0.273v0.068h-0.274v0.068h-0.274v0.068l-0.82.068v0.068h-0.479v0.068h-0.479v0.067h-0.479v0.068l-1.778.068a5.732,5.732,0,0,1-1.916,0H202.8v-0.068h-0.547v-0.068H201.7v-0.067h-0.548c-0.34-.1-0.823-0.168-1.162-0.272H199.65v-0.068h-0.206v-0.068h-0.273v-0.067H198.9v-0.068l-0.616-.068v-0.068h-0.205v-0.068h-0.2v-0.068h-0.205v-0.068h-0.2v-0.068h-0.206v-0.067h-0.2V638.87h-0.205V638.8l-0.616-.136V638.6h-0.137v-0.067h-0.205v-0.068H195.75V638.4l-0.273-.068v-0.068l-0.342-.068v-0.068h-0.2v-0.068h-0.137v-0.067l-0.274-.068v-0.068l-0.273-.068v-0.068h-0.137v-0.068h-0.137V637.58h-0.137v-0.067H193.7v-0.068h-0.137v-0.068h-0.136v-0.068h-0.137v-0.068h-0.137v-0.068h-0.137l-0.068-.135-0.274-.068c-0.022-.046-0.045-0.091-0.068-0.136l-0.274-.068c-0.023-.045-0.045-0.09-0.068-0.136h-0.137v-0.068c-0.15-.091-0.1.03-0.205-0.135h0.752a2.115,2.115,0,0,0,.958.068l2.052-.068v-0.068h0.547c0.467-.137,1.059-0.2,1.5-0.339h0.342v-0.068h0.205v-0.068h0.206v-0.068h0.205v-0.068l0.479-.068v-0.068l0.479-.067v-0.068l0.273-.068v-0.068l0.411-.068v-0.068h0.136v-0.068h0.206V635.07h0.136V635l0.274-.068v-0.068h0.137V634.8h0.137V634.73H201.5v-0.068h0.137V634.6h0.137v-0.068h0.137v-0.068h0.137v-0.068h0.136v-0.068h0.137v-0.068h0.137v-0.068l0.2-.068,0.069-.135,0.41-.136,0.069-.136h0.136l0.069-.135h0.137l0.136-.2h0.137l0.137-.2H204.1l0.068-.135,0.205-.068V632.9a9.064,9.064,0,0,1-1.983-.339h-0.274v-0.068h-0.137v-0.068h-0.2v-0.068h-0.205v-0.068h-0.2v-0.068h-0.137v-0.067h-0.205l-0.069-.136h-0.137v-0.068h-0.136V631.88h-0.137v-0.068H200.4v-0.068h-0.137v-0.067h-0.137c-0.022-.046-0.045-0.091-0.068-0.136h-0.137v-0.068l-0.205-.068c-0.023-.045-0.046-0.09-0.068-0.136h-0.137L199.307,631h-0.136l-0.411-.475h-0.137c-0.022-.045-0.045-0.091-0.068-0.136h-0.068v-0.136l-0.548-.475v-0.135l-0.2-.136v-0.136l-0.205-.135V629.1l-0.137-.068-0.068-.272-0.137-.067-0.137-.408a3.032,3.032,0,0,1-.547-1.289,3.048,3.048,0,0,1,.752.136l2.121-.068v-0.068h0.274v-0.068a1.012,1.012,0,0,0,.547-0.136l-0.958-.2v-0.068H199.1v-0.068H198.9v-0.068h-0.2v-0.067h-0.137v-0.068l-0.41-.136v-0.068h-0.137v-0.068h-0.137v-0.068h-0.137V625.84H197.6v-0.067l-0.205-.068-0.068-.136h-0.137c-0.023-.045-0.046-0.09-0.068-0.136h-0.137c-0.069-.09-0.137-0.181-0.205-0.271H196.64l-0.2-.272H196.3c-0.046-.067-0.091-0.135-0.137-0.2l-0.547-.475v-0.136l-0.342-.271v-0.136l-0.206-.136V623.4l-0.136-.067-0.069-.2h-0.068V622.99l-0.137-.068c-0.023-.09-0.046-0.181-0.068-0.271l-0.137-.068-0.069-.339h-0.068v-0.136h-0.068c-0.046-.136-0.092-0.271-0.137-0.407H194.04v-0.2h-0.068v-0.2H193.9v-0.2a5.6,5.6,0,0,1-.411-1.7,2.925,2.925,0,0,0-.068-0.883h0.068v-0.067a2.39,2.39,0,0,1,.684.339h0.137v0.068l0.41,0.068v0.067h0.206v0.068h0.136v0.068h0.274a7.094,7.094,0,0,0,1.915.34v-0.068a0.683,0.683,0,0,1-.136-0.136h-0.137l-0.137-.2h-0.137l-0.342-.407h-0.137l-0.41-.475-0.137-.068v-0.135l-0.274-.2v-0.136l-0.136-.068v-0.067l-0.137-.068V617.29L195,617.222v-0.136l-0.137-.067-0.068-.272-0.137-.068c-0.023-.068-0.046-0.136-0.068-0.2h-0.069c-0.023-.113-0.045-0.227-0.068-0.34h-0.069V616h-0.068c-0.046-.136-0.091-0.272-0.137-0.407h-0.068v-0.2H194.04v-0.2h-0.068v-0.2H193.9l-0.069-.475h-0.068v-0.34H193.7V613.9H193.63v-0.339h-0.069V612.54c-0.022-.068-0.045-0.136-0.068-0.2h0.068V611.25q0.24-.915.479-1.832,0.309-.611.616-1.221h0.137a7.127,7.127,0,0,0,1.3,1.425,16.063,16.063,0,0,0,1.984,1.832c0.069,0.09.137,0.181,0.205,0.271h0.137l0.2,0.272h0.137l0.137,0.2h0.137l0.137,0.2h0.136l0.069,0.136h0.137c0.045,0.068.091,0.135,0.137,0.2h0.136l0.069,0.136h0.137l0.068,0.136H200.2l0.068,0.135H200.4l0.068,0.136,0.274,0.068c0.023,0.045.046,0.09,0.068,0.136l0.206,0.068v0.067l0.41,0.136L201.5,613.9h0.137v0.068h0.137v0.068h0.137V614.1h0.137c0.022,0.045.045,0.09,0.068,0.135l0.274,0.068v0.068h0.136v0.068h0.137v0.068H202.8v0.068h0.137v0.067h0.205l0.069,0.136h0.136v0.068h0.137v0.068h0.205v0.068h0.137v0.068l0.616,0.2v0.068l0.615,0.136a22.243,22.243,0,0,0,7.251,1.561,2.925,2.925,0,0,0-.136-0.747v-0.814H212.1v-0.815h0.069V613.9h0.068c0.023-.271.046-0.543,0.068-0.814h0.069c0.023-.159.045-0.317,0.068-0.475h0.068v-0.2h0.069v-0.2h0.068V612h0.069v-0.136h0.068l0.069-.339,0.136-.068,0.206-.611h0.068c0.023-.068.046-0.136,0.068-0.2l0.137-.068,0.069-.272,0.136-.068,0.069-.2,0.2-.136v-0.136l0.41-.339v-0.136l0.411-.339c0.023-.045.046-0.09,0.068-0.136h0.137l0.342-.407,0.205-.068,0.069-.135h0.137c0.022-.046.045-0.091,0.068-0.136l0.2-.068v-0.068h0.137c0.023-.045.046-0.09,0.068-0.136l0.274-.067,0.068-.136h0.137v-0.068l0.274-.068v-0.068h0.205v-0.068l0.274-.067v-0.068h0.2v-0.068h0.137v-0.068h0.205v-0.068h0.205v-0.068h0.274v-0.068h0.273v-0.068h0.342V606.7h0.342v-0.068H220.1v-0.068H221.2v0.068l1.094,0.068v0.067h0.274v0.068h0.274v0.068h0.273v0.068l0.479,0.068v0.068l0.274,0.068v0.068h0.2v0.067l0.273,0.068v0.068h0.206c0.023,0.045.045,0.091,0.068,0.136l0.411,0.136c0.022,0.045.045,0.09,0.068,0.135l0.274,0.068,0.136,0.2h0.137l0.069,0.135h0.136l0.206,0.272h0.136V608.6l0.206,0.135,0.41,0.475h0.411a1.518,1.518,0,0,1,.615-0.135v-0.068h0.274v-0.068h0.273v-0.068h0.206v-0.068h0.2v-0.068H229v-0.067h0.2V608.6h0.205v-0.068h0.206v-0.068h0.205V608.4l0.274-.068v-0.068h0.136V608.2l0.821-.272v-0.068h0.137v-0.068h0.137v-0.067h0.137v-0.068h0.136l0.069-.136H231.8a1.864,1.864,0,0,1,.547-0.271v0.067h-0.068l-0.069.408h-0.068v0.2h-0.069c-0.045.136-.091,0.272-0.137,0.407h-0.068v0.136H231.8l-0.069.271-0.137.068c-0.022.091-.045,0.181-0.068,0.272l-0.137.068v0.135h-0.068v0.136l-0.2.136v0.135l-0.206.136v0.136l-0.478.407V610.5l-0.137.068v0.068h-0.137c-0.16.181-.319,0.362-0.479,0.542h-0.137l-0.273.34L229,611.59c-0.023.045-.046,0.09-0.068,0.135l-0.206.068v0.068h0.342v-0.068l1.095-.135V611.59H230.5v-0.068l0.547-.068v-0.068l0.684-.136v-0.068h0.205v-0.067h0.206v-0.068l0.41-.068v-0.068h0.137v-0.068Z" style="stroke: inherit; filter: none; fill: inherit"/>
  </g>
  <use transform="translate(-190.406 -605.063)" xlink:href="#Twitter" style="stroke: #e6e6e6; filter: none; fill: none"/>
</svg>
