<svg xmlns="http://www.w3.org/2000/svg" xmlns:xlink="http://www.w3.org/1999/xlink" width="44.875" height="27.562" viewBox="0 0 44.875 27.562">
  <metadata><?xpacket begin="﻿" id="W5M0MpCehiHzreSzNTczkc9d"?>
<x:xmpmeta xmlns:x="adobe:ns:meta/" x:xmptk="Adobe XMP Core 5.6-c138 79.159824, 2016/09/14-01:09:01        ">
   <rdf:RDF xmlns:rdf="http://www.w3.org/1999/02/22-rdf-syntax-ns#">
      <rdf:Description rdf:about=""/>
   </rdf:RDF>
</x:xmpmeta>
                                                                                                    
                                                                                                    
                                                                                                    
                                                                                                    
                                                                                                    
                                                                                                    
                                                                                                    
                                                                                                    
                                                                                                    
                                                                                                    
                                                                                                    
                                                                                                    
                                                                                                    
                                                                                                    
                                                                                                    
                                                                                                    
                                                                                                    
                                                                                                    
                                                                                                    
                                                                                                    
                           
<?xpacket end="w"?></metadata>
<defs>
    <style>
      .cls-1 {
        fill: #8c8c8c;
        stroke: #e6e6e6;
        stroke-linejoin: round;
        stroke-width: 3px;
        fill-rule: evenodd;
        opacity: 0.62;
        filter: url(#filter);
      }
    </style>
    <filter id="filter" x="191.219" y="669.563" width="41.875" height="24.562" filterUnits="userSpaceOnUse">
      <feFlood result="flood" flood-color="#e6e6e6"/>
      <feComposite result="composite" operator="in" in2="SourceGraphic"/>
      <feBlend result="blend" in2="SourceGraphic"/>
    </filter>
  </defs>
  <g transform="translate(-189.719 -668.063)" style="fill: #8c8c8c; filter: url(#filter)">
    <path id="VK" class="cls-1" d="M215.315,670.364l0.069,0.211h0.068v0.141h0.069v0.212h0.068v0.211h0.069v0.212h0.069v0.423H215.8q-0.035,1.408-.068,2.819v1.833a11.939,11.939,0,0,0,0,3.243v0.564H215.8v0.282h0.069v0.141h0.069c0.022,0.117.045,0.235,0.068,0.352h0.069a0.6,0.6,0,0,1,.137.282l0.206,0.071v0.07h0.137V681.5H217.1a0.577,0.577,0,0,1,.274-0.141l0.344-.423h0.137c0.045-.071.091-0.141,0.137-0.212l0.48-.423v-0.141l0.343-.282v-0.141l0.206-.141v-0.141l0.137-.07v-0.141l0.206-.141,0.069-.282,0.137-.071v-0.141l0.206-.141,0.069-.282h0.068l0.069-.211,0.137-.071v-0.141l0.137-.07,0.069-.282,0.137-.071,0.069-.211H220.6V676.99h0.069v-0.141h0.069v-0.141l0.137-.07,0.069-.282,0.137-.071v-0.141h0.068V676h0.069v-0.141h0.069v-0.141h0.068V675.58l0.138-.07v-0.141h0.068v-0.212h0.069v-0.141H221.7v-0.141l0.138-.07c0.068-.212.137-0.423,0.206-0.635h0.068v-0.141h0.069c0.046-.141.091-0.282,0.137-0.423h0.069V673.4h0.068v-0.141h0.069c0.046-.141.091-0.282,0.137-0.423h0.069v-0.212h0.068v-0.141h0.069l0.069-.423H223v-0.14h0.069a1.977,1.977,0,0,1,.617-0.987v-0.071h0.206a1.321,1.321,0,0,1,.618-0.141v0.071h0.755a7.057,7.057,0,0,1,1.578-.071h2.95a12.112,12.112,0,0,1,1.922,0h0.411v0.071h0.206v0.07c0.312,0.128.524,0.073,0.618,0.423a1.079,1.079,0,0,1,.137.775h-0.069v0.353H232.95c-0.046.211-.092,0.423-0.137,0.634h-0.069l-0.069.282h-0.068v0.141h-0.069v0.212l-0.137.07v0.141h-0.069v0.141h-0.068v0.141H232.2v0.141h-0.069v0.141h-0.068l-0.069.212-0.137.07v0.141h-0.069v0.141l-0.137.071v0.141l-0.137.07-0.069.282-0.137.071v0.141l-0.137.07V676l-0.206.141-0.069.282-0.206.141v0.141l-0.137.071v0.141l-0.206.141v0.14l-0.206.141v0.141l-0.137.071V677.7l-0.274.211v0.141l-0.138.071v0.141l-0.274.211-0.069.212-0.137.07v0.141l-0.206.141v0.141l-0.206.141v0.141l-0.274.212v0.141l-0.206.141v0.141l-0.206.141v0.141l-0.137.07v0.141l-0.274.212v0.141l-0.138.07v0.141l-0.274.212V681.5l-0.137.07v0.141l-0.138.071v0.141l-0.137.07c-0.023.071-.046,0.141-0.068,0.212h-0.069v0.14h-0.069c-0.045.142-.091,0.283-0.137,0.423h-0.069v0.212a2,2,0,0,0-.068.916,3.347,3.347,0,0,0,.96,1.269l1.236,1.34h0.137l0.96,1.057,0.961,0.916v0.141l0.137,0.071v0.07l0.549,0.494V689.4l0.206,0.141v0.141l0.275,0.211v0.141l0.274,0.212v0.141l0.206,0.141,0.069,0.282,0.137,0.07v0.141l0.137,0.071v0.141l0.137,0.07v0.141h0.069c0.046,0.141.091,0.282,0.137,0.423h0.069v0.282h0.068a1.9,1.9,0,0,1-.068,1.057,1.521,1.521,0,0,1-.892.705h-0.275v0.071h-1.029v0.07h-3.637l-2.264.071-1.578-.564v-0.07l-0.206-.071L223,693.274l-0.274-.071-0.275-.352h-0.137l-0.755-.846L220.8,691.3v-0.141l-0.48-.423V690.6l-0.549-.493v-0.141l-0.274-.212-0.549-.634h-0.138l-0.274-.353H218.4l-0.069-.141H218.2l-0.069-.141h-0.206v-0.07a1.968,1.968,0,0,0-.823,0l-0.137.211h-0.137l-0.275.353h-0.069v0.141l-0.137.07c-0.023.094-.046,0.188-0.068,0.282l-0.138.071v0.211H216.07v0.141H216v0.282h-0.068v0.282h-0.069v0.353H215.8v0.423h-0.068V692.5h-0.069v0.493a4.363,4.363,0,0,0-.206.494l-0.48.352-0.412.07v0.071h-3.568v0.07h-0.069v-0.07H210.1v-0.071l-0.824-.07v-0.071l-0.617-.07v-0.071h-0.275v-0.07h-0.2v-0.07h-0.206v-0.071h-0.206v-0.071h-0.206v-0.07h-0.206V693.2l-0.411-.07v-0.07l-0.412-.141v-0.071H206.4V692.78l-0.344-.07c-0.022-.047-0.045-0.094-0.068-0.141l-0.412-.141c-0.023-.047-0.046-0.094-0.068-0.141l-0.275-.07-0.069-.141-0.274-.071-0.069-.141h-0.137v-0.07h-0.137v-0.071l-0.206-.07-0.069-.141H204.13l-0.069-.141h-0.137l-0.137-.212H203.65v-0.07l-0.206-.071-0.069-.141h-0.137l-0.069-.141-0.205-.07-0.138-.212h-0.137l-0.274-.352h-0.138l-0.754-.846-0.824-.776v-0.141l-0.274-.211v-0.141l-0.206-.141v-0.141l-0.275-.212c-0.023-.07-0.045-0.14-0.068-0.211l-0.137-.07v-0.141l-0.344-.282v-0.141l-0.205-.141v-0.141l-0.206-.141v-0.141l-0.137-.071v-0.141l-0.206-.141V685.59l-0.206-.141-0.069-.211-0.137-.071v-0.141l-0.137-.07v-0.141l-0.206-.141v-0.141l-0.137-.071-0.069-.211h-0.069V684.11l-0.137-.071V683.9l-0.137-.07v-0.141l-0.137-.071v-0.141l-0.138-.07v-0.141l-0.205-.141-0.138-.423h-0.068l-0.069-.211-0.137-.071v-0.141h-0.069v-0.141c-0.045-.024-0.091-0.047-0.137-0.07l-0.069-.282-0.137-.071c-0.023-.094-0.046-0.188-0.068-0.282l-0.138-.07c-0.023-.071-0.046-0.141-0.068-0.212H195.69c-0.046-.141-0.091-0.282-0.137-0.423l-0.137-.07-0.138-.423-0.137-.071-0.069-.282H195v-0.141h-0.069V679.6l-0.137-.07c-0.046-.141-0.091-0.282-0.137-0.423h-0.069v-0.141h-0.068v-0.141l-0.138-.071v-0.141h-0.068V678.47h-0.069v-0.141H194.18v-0.141h-0.068l-0.069-.282-0.137-.07L193.7,677.2l-0.137-.07V676.99h-0.069v-0.141h-0.068v-0.141h-0.069v-0.141h-0.069v-0.141H193.22v-0.141h-0.069v-0.141h-0.069V676h-0.068v-0.141h-0.069v-0.141h-0.068V675.58h-0.069v-0.141h-0.069c-0.022-.094-0.045-0.188-0.068-0.282H192.6v-0.141h-0.068l-0.069-.352H192.4c-0.045-.141-0.091-0.282-0.137-0.423H192.19v-0.212h-0.068l-0.069-.282h-0.068v-0.211l-0.138-.071v-0.211h-0.068l-0.069-.282h-0.068V672.76h-0.069v-0.141H191.5a2.478,2.478,0,0,1-.274-1.268H191.3V671.21c0.622-.993,3.391-0.189,4.667-0.564h2.676v0.07h0.274v0.071h0.206v0.07l0.274,0.071V671h0.138l0.068,0.141,0.275,0.212v0.141l0.137,0.07,0.069,0.282h0.068v0.211h0.069V672.2h0.068v0.212h0.069v0.141h0.069v0.141h0.068v0.141h0.069v0.211h0.069c0.045,0.141.091,0.282,0.137,0.423h0.068v0.141h0.069l0.069,0.282h0.068V674.1h0.069c0.046,0.141.091,0.282,0.137,0.423h0.069v0.141h0.068v0.141h0.069v0.141h0.069v0.141h0.068v0.141h0.069v0.141l0.137,0.07,0.069,0.353h0.068v0.141H202v0.141l0.137,0.07v0.141h0.069v0.141h0.068v0.141h0.069v0.141h0.069c0.023,0.094.045,0.188,0.068,0.282l0.137,0.071c0.069,0.211.138,0.423,0.206,0.634l0.138,0.07c0.045,0.141.091,0.282,0.137,0.423l0.137,0.071V678.4h0.069v0.141h0.068v0.141l0.138,0.07c0.022,0.094.045,0.188,0.068,0.282l0.137,0.071v0.141l0.138,0.07v0.141h0.068l0.069,0.212,0.137,0.07v0.141l0.275,0.212v0.141l0.343,0.282c0.023,0.07.045,0.141,0.068,0.211l0.275,0.212v0.07h0.137l0.206,0.282h0.137l0.069,0.141h0.137V681.5h0.206v0.07a1.281,1.281,0,0,0,.892-0.141,3.379,3.379,0,0,0,.617-1.41v-0.493h0.069v-0.635h0.069v-0.564H207.7v-0.916a4.311,4.311,0,0,0,.069-1.41H207.7v-1.2H207.63v-0.564h-0.069v-0.494h-0.069V673.4h-0.068v-0.282h-0.069c-0.023-.141-0.046-0.282-0.068-0.423h-0.069l-0.069-.282h-0.068v-0.141l-0.137-.071-0.275-.352h-0.137v-0.07H206.4V671.7h-0.138v-0.07H206.12v-0.071h-0.137v-0.07h-0.206v-0.071a1.474,1.474,0,0,1-.618-0.141c-0.078-.08-0.027,0-0.068-0.141h0.068a2.43,2.43,0,0,1,1.647-1.269l0.755-.07v-0.071h0.48v-0.07h1.1a10.319,10.319,0,0,1,3.019,0h0.618l1.3,0.141,0.823,0.282A1.336,1.336,0,0,0,215.315,670.364Z" style="stroke: inherit; filter: none; fill: inherit"/>
  </g>
  <use transform="translate(-189.719 -668.063)" xlink:href="#VK" style="stroke: #e6e6e6; filter: none; fill: none"/>
</svg>
